<?xml version="1.0" standalone="no"?>
<!DOCTYPE svg PUBLIC "-//W3C//DTD SVG 20010904//EN"
 "http://www.w3.org/TR/2001/REC-SVG-20010904/DTD/svg10.dtd">
<svg version="1.0" xmlns="http://www.w3.org/2000/svg"
     width="487.000000pt" height="512.000000pt" viewBox="0 0 487.000000 512.000000"
     preserveAspectRatio="xMidYMid meet">

  <!-- ★ 추가된 흰색 육각형 배경 ★ -->
  <polygon points="243.5 16 451.3 136 451.3 376 243.5 496 35.7 376 35.7 136"
           fill="#ffffff" stroke="none"/>

  <!-- ▼ 원본 로고 그룹: 내용은 건드리지 않았습니다 ▼ -->
<g transform="translate(0.000000,512.000000) scale(0.100000,-0.100000)"
fill="#000000" stroke="none">
<path d="M1890 4103 c-300 -173 -630 -363 -735 -424 -179 -103 -188 -109 -150
-109 35 0 133 53 718 390 373 215 682 390 687 390 7 0 10 -294 10 -826 0 -603
3 -823 11 -818 6 3 15 0 20 -7 5 -8 9 341 9 820 0 663 3 832 13 828 6 -2 312
-178 679 -390 516 -298 676 -386 707 -389 31 -3 38 -1 28 8 -6 6 -322 190
-702 409 -379 218 -703 405 -720 415 l-30 17 -545 -314z"/>
<path d="M1599 3757 l-746 -422 -8 -713 c-4 -392 -5 -715 -4 -716 2 -2 339
186 749 418 l745 422 7 94 c5 52 7 375 5 717 l-2 622 -746 -422z m399 57 l-3
-106 -104 -59 c-57 -33 -105 -59 -108 -59 -2 0 -2 48 -1 106 l3 107 100 58
c55 31 104 58 108 58 4 1 6 -47 5 -105z m-292 -259 c-4 -11 -198 -125 -211
-125 -3 0 -5 47 -5 104 l0 104 108 60 107 60 3 -96 c1 -52 1 -101 -2 -107z
m-286 -69 l0 -104 -107 -61 -108 -60 -3 101 c-1 56 2 106 7 111 12 12 194 116
204 117 4 0 7 -47 7 -104z m290 -104 l0 -108 -87 -49 c-49 -27 -98 -55 -110
-63 l-23 -14 0 108 0 109 108 62 c59 34 108 62 110 62 1 1 2 -48 2 -107z m-2
-278 l-3 -106 -108 -60 c-59 -34 -109 -59 -111 -57 -2 2 0 51 3 108 l6 104
100 58 c55 31 104 58 108 58 4 1 6 -47 5 -105z m-2 -370 c-4 -9 -176 -114
-219 -132 -4 -2 -6 45 -5 104 l3 108 110 63 110 63 3 -97 c1 -53 1 -102 -2
-109z m4 -172 c0 -82 -3 -102 -17 -114 -19 -15 -199 -118 -208 -118 -3 0 -5
47 -5 104 l0 104 108 61 c59 33 110 61 115 61 4 0 7 -44 7 -98z"/>
<path d="M2540 3433 l0 -728 428 -238 c235 -130 551 -306 702 -391 l275 -153
3 -71 c3 -69 -3 -83 -23 -63 -6 5 -273 161 -595 346 -517 298 -655 378 -789
458 -29 18 -34 18 -28 5 4 -11 0 -18 -11 -20 -9 -2 44 -37 118 -80 543 -308
1295 -749 1295 -757 0 -6 -315 -192 -700 -414 -554 -319 -701 -408 -703 -425
-2 -12 -1 -22 3 -22 3 0 238 134 523 298 284 164 615 354 734 423 l217 124 0
815 0 815 -102 56 c-92 51 -1322 735 -1339 746 -5 2 -8 -323 -8 -724z m378
457 l82 -45 0 -108 c0 -60 -3 -107 -7 -105 -5 2 -45 23 -90 48 l-83 45 0 108
c0 60 3 107 8 105 4 -1 44 -23 90 -48z m228 -126 l84 -45 0 -110 0 -110 -57
32 c-32 17 -73 41 -90 51 l-33 20 0 104 c0 57 3 104 6 104 4 0 45 -20 90 -46z
m229 -129 l84 -46 3 -105 c2 -58 1 -107 -2 -109 -3 -1 -44 20 -92 47 l-88 49
0 105 c0 57 3 104 6 104 3 0 43 -20 89 -45z m-459 -22 l84 -47 0 -109 0 -109
-77 42 c-43 24 -84 47 -90 53 -13 10 -20 217 -7 217 3 0 43 -21 90 -47z m702
-113 l82 -45 0 -108 c0 -60 -3 -107 -7 -105 -5 2 -45 23 -90 48 l-83 45 0 108
c0 60 3 107 8 105 4 -1 44 -23 90 -48z m-701 -167 l83 -47 0 -108 0 -109 -77
42 c-43 23 -84 46 -90 52 -14 10 -19 217 -6 217 3 0 44 -21 90 -47z m-1 -279
l84 -46 0 -109 c0 -61 -3 -108 -7 -106 -5 2 -45 26 -90 52 l-83 47 0 104 c0
57 3 104 6 104 3 0 44 -21 90 -46z m3 -280 l81 -45 0 -110 0 -111 -32 20 c-18
10 -59 34 -90 51 l-58 32 0 105 c0 57 4 104 9 104 5 0 45 -21 90 -46z m232
-126 l79 -43 0 -107 c0 -60 -3 -108 -6 -108 -3 0 -43 21 -90 47 l-84 47 0 103
c0 67 4 103 11 103 6 0 46 -19 90 -42z m229 -130 l79 -43 3 -108 c2 -59 0
-107 -5 -107 -9 0 -112 57 -149 82 -27 19 -28 22 -28 119 0 64 4 99 11 99 6 0
46 -19 89 -42z m263 -147 l57 -32 0 -105 c0 -57 -4 -104 -9 -104 -5 0 -45 21
-90 46 l-81 45 0 110 0 111 33 -20 c17 -10 58 -34 90 -51z"/>
<path d="M2035 2412 c-187 -108 -519 -300 -737 -427 -219 -126 -398 -232 -398
-235 0 -4 249 -149 1277 -742 188 -108 203 -115 203 -93 0 17 -11 30 -40 46
-22 13 -40 25 -40 28 0 3 296 175 657 381 362 206 656 380 655 385 -3 10
-1085 654 -1112 662 -8 2 -314 -168 -680 -377 -365 -210 -667 -382 -671 -383
-9 -2 -169 86 -169 93 0 6 1077 631 1283 746 96 53 110 65 112 88 0 14 1 26 0
26 0 0 -153 -89 -340 -198z m117 -352 c32 -17 60 -35 62 -39 3 -3 -33 -28 -79
-54 l-83 -47 -81 47 c-44 27 -81 50 -81 53 0 3 37 26 83 52 72 41 84 45 102
34 11 -7 46 -28 77 -46z m430 4 c43 -25 78 -47 78 -49 0 -3 -141 -84 -162 -93
-9 -4 -168 87 -168 96 0 9 141 90 159 91 8 1 50 -20 93 -45z m-662 -120 c44
-26 80 -48 80 -49 0 -11 -165 -95 -176 -91 -9 3 -47 24 -86 47 -50 29 -67 44
-59 52 13 13 143 87 154 87 4 0 43 -21 87 -46z m-218 -130 c89 -53 91 -44 -24
-108 l-67 -37 -80 46 c-45 26 -81 50 -81 53 0 9 141 90 159 91 8 1 50 -20 93
-45z m868 0 c44 -25 80 -49 80 -53 0 -4 -36 -28 -81 -53 l-81 -46 -79 47 c-43
25 -79 49 -79 52 0 6 148 98 158 99 2 0 39 -21 82 -46z m-583 -178 c-2 -5 -37
-29 -79 -53 l-77 -44 -80 46 c-45 26 -81 50 -81 54 0 4 36 28 81 53 l81 46 79
-47 c43 -25 77 -50 76 -55z m368 52 c41 -24 75 -46 75 -50 0 -3 -36 -27 -80
-53 l-81 -46 -84 48 c-52 29 -81 51 -75 57 16 16 144 86 158 86 7 0 46 -19 87
-42z m-222 -128 c42 -25 77 -48 77 -51 0 -4 -36 -27 -81 -53 l-81 -46 -79 46
c-43 25 -79 49 -79 54 0 9 151 100 161 97 3 -1 40 -22 82 -47z m220 -130 c42
-25 77 -47 77 -50 0 -3 -38 -26 -83 -51 l-82 -47 -45 26 c-25 14 -63 37 -84
50 l-39 24 84 49 c46 27 86 48 90 46 3 -1 40 -22 82 -47z m217 -129 c59 -36
77 -51 68 -58 -25 -20 -145 -83 -157 -83 -14 0 -149 78 -156 90 -5 7 140 98
157 100 4 0 43 -22 88 -49z"/>
</g>
</svg>
